<?xml version="1.0" standalone="no"?>
<!DOCTYPE svg PUBLIC "-//W3C//DTD SVG 20010904//EN"
 "http://www.w3.org/TR/2001/REC-SVG-20010904/DTD/svg10.dtd">
<svg version="1.0" xmlns="http://www.w3.org/2000/svg"
 width="512.000000pt" height="512.000000pt" viewBox="0 0 512.000000 512.000000"
 preserveAspectRatio="xMidYMid meet">

<g transform="translate(0.000000,512.000000) scale(0.100000,-0.100000)"
fill="#000000" stroke="none">
<path d="M2340 5100 c-59 -28 -87 -55 -117 -114 -47 -92 -38 -218 23 -321 55
-95 230 -217 314 -219 44 -1 149 48 216 101 133 106 191 298 130 428 -57 124
-179 174 -298 123 -48 -21 -51 -21 -80 -4 -47 28 -134 31 -188 6z m157 -182
c57 -51 84 -50 133 3 45 50 79 54 119 15 22 -23 26 -35 26 -84 -1 -95 -65
-182 -172 -232 l-43 -20 -41 21 c-58 29 -129 97 -150 144 -36 79 -19 174 35
194 28 11 44 4 93 -41z"/>
<path d="M1430 4863 c-32 -16 -64 -42 -78 -63 -21 -31 -30 -36 -78 -41 -207
-24 -273 -267 -119 -437 93 -104 254 -157 405 -133 58 9 69 15 105 54 88 96
142 242 131 355 -14 161 -118 277 -255 289 -47 4 -65 0 -111 -24z m159 -158
c36 -31 53 -79 52 -150 0 -61 -16 -105 -62 -171 l-32 -46 -81 4 c-96 5 -147
28 -199 89 -43 49 -54 89 -36 131 17 40 50 52 96 33 19 -8 46 -15 60 -15 33 0
73 42 73 77 0 72 70 97 129 48z"/>
<path d="M3514 4856 c-120 -56 -184 -213 -150 -369 20 -90 70 -177 142 -248
53 -53 55 -53 123 -57 87 -5 216 26 282 69 164 105 223 294 133 428 -39 58
-86 85 -163 89 -61 4 -69 7 -104 44 -21 22 -54 46 -72 54 -52 22 -132 18 -191
-10z m136 -136 c10 -5 26 -32 35 -60 9 -28 25 -55 35 -60 26 -14 71 -12 100 5
59 34 110 3 110 -65 0 -49 -17 -85 -62 -126 -52 -49 -96 -67 -178 -72 l-75 -4
-33 45 c-18 25 -41 65 -52 89 -58 127 25 299 120 248z"/>
<path d="M2400 4143 c-147 -15 -388 -81 -492 -134 -60 -31 -64 -106 -7 -138
24 -13 34 -11 137 27 62 23 149 51 194 62 93 22 314 47 325 36 11 -11 -34
-153 -76 -241 -55 -114 -90 -157 -181 -221 -169 -118 -270 -240 -311 -376 -46
-151 -7 -325 98 -439 120 -129 258 -151 586 -93 129 22 135 21 156 -30 11 -24
27 -46 36 -50 56 -21 115 10 115 62 0 39 -43 125 -75 150 -55 44 -86 46 -261
18 -323 -52 -422 -29 -491 112 -24 48 -28 70 -28 137 0 68 4 89 29 138 36 75
127 172 225 241 168 118 258 266 331 544 l11 44 42 -7 c93 -14 255 -59 345
-96 325 -133 592 -387 747 -712 29 -61 55 -120 57 -131 2 -14 -20 -32 -90 -75
-188 -115 -297 -229 -336 -353 -23 -76 -24 -201 -1 -357 16 -103 17 -131 6
-170 -23 -87 -105 -201 -195 -270 l-55 -43 -96 13 c-86 11 -98 15 -106 35 -12
33 -29 212 -29 310 0 71 -3 87 -20 104 -27 27 -83 27 -111 -1 -21 -21 -22 -27
-15 -188 3 -91 9 -180 12 -196 l6 -30 -299 0 c-339 -1 -557 -19 -848 -69 -29
-6 -31 -3 -74 85 -43 87 -44 93 -33 134 6 24 43 114 82 199 116 256 123 344
33 427 -37 35 -71 52 -173 85 -56 18 -93 36 -110 54 -14 15 -54 81 -90 146
-35 65 -80 141 -98 169 -32 47 -33 52 -22 85 43 121 170 304 309 445 65 67
101 111 101 125 0 27 -52 80 -79 80 -48 0 -232 -188 -336 -344 -109 -164 -183
-339 -231 -542 -27 -112 -29 -132 -29 -344 0 -195 3 -238 22 -323 43 -189 122
-383 219 -534 19 -30 34 -57 32 -58 -2 -2 -67 -24 -145 -49 -78 -26 -193 -67
-255 -91 -62 -25 -118 -45 -124 -45 -9 0 -104 184 -104 203 0 4 29 72 65 151
36 79 65 150 65 158 0 30 -40 68 -71 68 -49 0 -64 -15 -100 -96 l-33 -78 -18
59 c-9 33 -27 110 -39 171 l-22 112 106 141 c71 93 107 150 107 167 0 35 -42
74 -80 74 -25 0 -38 -10 -75 -57 -24 -32 -51 -67 -60 -78 -15 -19 -16 -8 -10
135 10 256 -2 229 150 336 154 108 170 126 154 172 -23 68 -72 68 -167 1 -40
-28 -72 -48 -72 -45 0 14 72 221 100 288 30 72 36 79 69 87 20 5 96 24 169 41
141 34 152 41 152 99 0 37 -31 71 -62 71 -13 0 -61 -9 -107 -20 -46 -11 -86
-19 -88 -17 -5 5 117 186 162 241 23 28 35 54 35 73 0 39 -36 73 -78 73 -26 0
-39 -10 -78 -57 -26 -32 -74 -100 -107 -151 l-61 -93 -21 75 c-24 90 -43 116
-85 116 -32 0 -80 -37 -80 -62 0 -7 18 -83 41 -169 l41 -156 -32 -73 c-17 -39
-50 -128 -73 -197 l-42 -126 -35 76 c-44 93 -65 117 -102 117 -33 0 -78 -39
-78 -69 0 -10 38 -98 84 -193 81 -170 83 -176 75 -224 -4 -27 -11 -120 -15
-207 l-7 -157 -73 70 c-44 43 -80 70 -94 70 -28 0 -80 -52 -80 -81 0 -15 42
-65 134 -158 l134 -136 16 -96 c10 -53 28 -138 41 -189 13 -52 23 -96 21 -97
-1 -1 -38 20 -81 47 -44 28 -91 50 -105 50 -61 0 -93 -86 -47 -127 12 -11 90
-62 174 -114 l151 -94 43 -90 c24 -49 45 -93 47 -96 2 -4 -61 -39 -140 -79
-184 -93 -394 -216 -413 -243 -20 -28 -19 -60 2 -86 10 -12 137 -76 283 -142
146 -67 268 -124 271 -128 4 -3 14 -154 24 -336 13 -241 21 -336 31 -352 21
-34 62 -40 104 -16 19 11 91 52 160 92 376 214 815 353 1300 413 136 16 562
16 705 0 167 -20 325 -49 482 -88 79 -19 152 -33 163 -29 21 7 50 53 50 79 0
52 -86 86 -360 140 -258 51 -364 60 -690 60 -317 0 -408 -8 -660 -55 -339 -64
-740 -207 -1022 -363 -54 -30 -98 -54 -99 -53 0 1 -8 134 -18 296 -17 291 -17
294 -42 315 -14 12 -123 66 -242 120 -186 85 -214 101 -199 111 42 30 252 139
374 196 496 230 1004 363 1565 410 188 15 695 6 853 -15 504 -70 873 -169
1274 -341 125 -53 350 -165 447 -221 l67 -39 -227 -109 c-124 -60 -237 -119
-251 -133 -24 -23 -25 -26 -32 -241 -3 -119 -7 -245 -7 -278 l-1 -62 -189 95
c-219 110 -265 122 -299 78 -27 -33 -28 -76 -4 -97 9 -8 96 -53 192 -100 96
-47 217 -111 267 -142 51 -31 101 -56 112 -56 11 0 31 10 46 23 l25 22 10 329
c5 180 10 329 12 331 2 1 125 60 273 130 149 71 280 138 293 149 22 20 30 68
14 94 -13 20 -264 167 -418 245 l-142 71 48 96 48 96 167 104 c92 58 171 113
177 123 13 26 0 74 -25 92 -35 25 -66 18 -148 -35 -43 -28 -80 -50 -83 -50 -2
0 4 30 15 68 11 37 30 126 44 197 l24 130 130 128 c100 97 131 133 131 153 0
37 -15 60 -49 73 -38 16 -58 6 -138 -72 l-63 -61 0 118 c0 64 -5 159 -11 210
l-11 93 81 168 c45 92 81 181 81 196 0 31 -40 69 -72 69 -39 0 -61 -24 -100
-107 l-39 -86 -49 144 c-27 79 -60 168 -73 197 l-25 53 39 147 c47 176 48 194
13 221 -50 39 -106 18 -123 -47 -5 -20 -15 -56 -21 -80 l-11 -43 -68 103 c-97
145 -145 198 -182 198 -36 0 -79 -39 -79 -73 0 -13 21 -50 46 -83 58 -73 157
-224 152 -229 -2 -3 -41 4 -87 15 -45 11 -92 20 -105 20 -55 0 -87 -88 -46
-125 11 -10 74 -31 142 -47 213 -50 195 -42 224 -106 35 -79 107 -292 101
-299 -3 -2 -36 16 -72 41 -41 28 -78 46 -95 46 -55 0 -92 -87 -52 -122 9 -9
73 -55 142 -102 104 -72 126 -92 133 -119 4 -18 10 -106 13 -197 l5 -165 -21
25 c-96 114 -102 120 -126 120 -37 0 -60 -15 -73 -49 -16 -37 -14 -41 107
-201 l94 -125 -6 -55 c-8 -71 -55 -268 -66 -275 -4 -2 -20 23 -35 58 -36 81
-51 97 -90 97 -44 0 -78 -29 -77 -66 0 -16 30 -92 65 -170 l64 -141 -48 -101
c-26 -56 -52 -102 -58 -102 -6 0 -45 14 -88 32 -43 17 -160 59 -260 92 l-181
62 35 54 c260 407 321 911 166 1370 -190 567 -699 987 -1292 1066 -97 12 -284
16 -371 7z m-1158 -1339 c99 -182 135 -216 283 -264 39 -12 83 -29 99 -37 27
-14 28 -17 23 -63 -4 -29 -34 -110 -72 -195 -124 -274 -131 -319 -64 -440 22
-41 38 -78 35 -83 -5 -9 -125 -36 -131 -30 -2 2 -30 45 -64 97 -103 161 -174
349 -206 546 -17 104 -20 330 -5 425 11 73 30 160 35 160 2 0 32 -52 67 -116z
m2730 25 c4 -19 12 -89 18 -155 30 -339 -74 -700 -281 -977 -4 -6 -244 40
-258 50 -2 1 15 23 38 48 60 65 116 156 140 227 25 73 26 148 6 273 -20 118
-19 229 1 289 9 27 37 70 66 102 50 54 234 186 253 181 5 -2 13 -19 17 -38z"/>
<path d="M2335 1505 l-25 -24 0 -291 0 -291 25 -24 c29 -30 74 -32 106 -6 21
17 24 29 27 104 l4 84 51 -5 c70 -6 88 -25 99 -104 6 -45 14 -68 29 -80 31
-26 75 -23 106 8 23 23 25 31 20 84 -3 32 -17 84 -31 115 l-26 57 20 28 c42
60 43 186 1 253 -55 89 -118 116 -269 117 -107 0 -114 -1 -137 -25z m262 -159
c29 -34 31 -86 3 -111 -13 -11 -41 -20 -75 -23 l-55 -4 0 87 0 88 52 -5 c40
-4 57 -11 75 -32z"/>
<path d="M3011 1484 c-46 -58 -15 -118 66 -129 27 -4 60 -10 74 -13 l25 -7
-34 -228 c-19 -125 -31 -239 -28 -252 6 -24 51 -55 80 -55 8 0 26 10 40 23 24
20 29 39 61 257 19 129 35 235 35 235 0 0 37 -4 81 -9 l82 -10 23 28 c30 34
31 76 2 103 -19 18 -61 27 -226 52 -249 38 -255 38 -281 5z"/>
<path d="M1775 1460 c-12 -4 -26 -14 -33 -23 -7 -8 -39 -149 -72 -313 -65
-323 -66 -339 -14 -363 61 -28 99 -2 115 78 l12 59 101 16 101 17 20 -27 c56
-78 90 -91 139 -53 48 38 39 61 -129 338 -166 275 -184 294 -240 271z m100
-336 c15 -25 25 -47 23 -48 -1 -2 -20 -7 -42 -10 l-38 -7 7 48 c7 46 12 63 20
63 2 0 15 -21 30 -46z"/>
<path d="M3771 1313 c-16 -13 -46 -93 -106 -283 -47 -146 -85 -275 -85 -287 0
-28 31 -60 66 -69 47 -12 75 21 110 132 21 64 36 99 45 98 28 -3 159 -45 159
-52 0 -4 -14 -50 -30 -102 -36 -115 -36 -124 -5 -155 30 -31 84 -34 109 -7 9
11 55 143 102 295 84 269 86 277 70 302 -23 35 -62 49 -98 34 -27 -11 -43 -41
-78 -154 -7 -22 -16 -44 -20 -49 -9 -9 -157 31 -166 45 -2 4 9 51 26 103 33
103 32 120 -12 150 -29 21 -61 20 -87 -1z"/>
<path d="M1075 1269 c-141 -49 -185 -77 -185 -117 0 -15 150 -458 181 -535 25
-61 52 -60 238 3 144 50 191 78 191 115 0 27 -22 63 -47 76 -21 11 -38 9 -140
-25 -63 -21 -118 -34 -123 -30 -9 11 -30 72 -30 88 0 6 39 24 86 41 48 16 96
36 107 46 27 21 28 80 2 109 -25 28 -66 26 -163 -10 -46 -16 -84 -30 -86 -30
-9 0 -35 94 -29 100 5 4 53 22 108 41 55 19 108 42 117 51 44 44 4 130 -58
127 -16 -1 -92 -24 -169 -50z"/>
</g>
</svg>
